# xmcd CD database file
#
# Track frame offsets:
#	150
#	17302
#	46722
#	70802
#	81252
#	134575
#	159712
#	190437
#	203615
#	222965
#	241710
#	261240
#
# Disc length: 4021 seconds
#
# Revision: 1
# Processed by: cddbd v1.4PL0 Copyright (c) Steve Scherf et al.
# Submitted via: CDex 1.50Beta3
#
DISCID=a10fb30c
DTITLE=Verschiedene - Jugend jazzt 1996
DYEAR=1900
DGENRE=Jazz
TTITLE0=John Brown's Other Body
TTITLE1=Doxy
TTITLE2=Some Skunk Funk
TTITLE3=Dou You Like Sax
TTITLE4=The Whale
TTITLE5=April Joy Going Mad
TTITLE6=Radio Theme
TTITLE7=Basie Straight Ahead
TTITLE8=Blue Basket
TTITLE9=Aggressive Blues
TTITLE10=Fog Of Dreams
TTITLE11=Morning Suite
EXTD=
EXTT0=
EXTT1=
EXTT2=
EXTT3=
EXTT4=
EXTT5=
EXTT6=
EXTT7=
EXTT8=
EXTT9=
EXTT10=
EXTT11=
PLAYORDER=
